<?xml version="1.0" encoding="UTF-8"?>
<!DOCTYPE svg PUBLIC "-//W3C//DTD SVG 1.1//EN" "http://www.w3.org/Graphics/SVG/1.1/DTD/svg11.dtd">
<!-- Creator: CorelDRAW X6 -->
<svg xmlns="http://www.w3.org/2000/svg" xml:space="preserve" width="4.875in" height="1.375in" version="1.1" style="shape-rendering:geometricPrecision; text-rendering:geometricPrecision; image-rendering:optimizeQuality; fill-rule:evenodd; clip-rule:evenodd"
viewBox="0 0 4875 1375"
 xmlns:xlink="http://www.w3.org/1999/xlink">
 <defs>
  <style type="text/css">
   <![CDATA[
    .fil0 {fill:#942A2A;fill-rule:nonzero}
   ]]>
  </style>
 </defs>
 <g id="Layer_x0020_1">
  <metadata id="CorelCorpID_0Corel-Layer"/>
  <path class="fil0" d="M4863 1370l-4857 0 0 -541c0,0 196,-64 238,-94 0,0 257,-195 338,-199 0,0 -13,-56 47,-81 0,0 107,-64 154,-107 0,0 39,-43 113,-43 0,0 124,-9 180,-54 0,0 88,-62 182,-51 0,0 34,9 88,-30 0,0 246,-122 340,-69 0,0 152,98 236,111 0,0 71,15 103,58 0,0 94,94 298,32 0,0 300,-141 439,-268 0,0 58,-62 66,-2 0,0 -9,131 62,163 0,0 73,69 133,21 0,0 30,2 26,-34 0,0 -6,-24 21,-47 0,0 13,-43 32,-62 0,0 71,-32 77,0 0,0 13,43 51,64 0,0 45,11 32,43 0,0 103,96 191,64 0,0 98,-103 148,-58 0,0 120,62 173,62 0,0 56,-21 79,9 0,0 39,30 73,32 0,0 101,30 107,49 0,0 2,13 32,2 0,0 56,-6 169,39 0,0 47,26 86,56 0,0 124,88 184,88 0,0 32,-30 75,4 0,0 201,81 255,118l36 24 -7 701z"/>
 </g>
</svg>
